<?xml version="1.0" standalone="no"?>
<!DOCTYPE svg PUBLIC "-//W3C//DTD SVG 20010904//EN"
 "http://www.w3.org/TR/2001/REC-SVG-20010904/DTD/svg10.dtd">
<svg version="1.0" xmlns="http://www.w3.org/2000/svg"
 width="811.000000pt" height="811.000000pt" viewBox="0 0 811.000000 811.000000"
 preserveAspectRatio="xMidYMid meet">
<metadata>
Created by potrace 1.14, written by Peter Selinger 2001-2017
</metadata>
<g transform="translate(0.000000,811.000000) scale(0.100000,-0.100000)"
fill="#000000" stroke="none">
<path d="M3635 7958 c-55 -4 -152 -10 -215 -13 -63 -3 -125 -8 -138 -11 -13
-2 -53 -7 -90 -9 -37 -3 -83 -7 -102 -10 -19 -2 -60 -7 -90 -10 -30 -3 -66 -9
-80 -12 -14 -3 -43 -7 -65 -9 -22 -1 -65 -8 -95 -13 -30 -6 -103 -20 -161 -31
-59 -11 -119 -20 -133 -20 -14 0 -26 -3 -26 -7 0 -5 -21 -9 -47 -11 -25 -2
-54 -7 -64 -13 -10 -5 -29 -9 -43 -9 -14 0 -27 -4 -30 -9 -3 -5 -23 -11 -43
-14 -68 -9 -108 -18 -117 -28 -6 -5 -20 -9 -31 -9 -12 0 -25 -3 -29 -7 -3 -4
-16 -8 -27 -10 -11 -2 -36 -10 -57 -20 -20 -9 -41 -15 -45 -14 -5 1 -23 -5
-40 -13 -18 -8 -44 -17 -59 -20 -15 -3 -33 -12 -40 -19 -7 -6 -22 -14 -33 -15
-11 -2 -24 -8 -29 -13 -6 -5 -18 -9 -28 -9 -10 0 -18 -5 -18 -11 0 -5 -4 -8
-9 -5 -4 3 -17 -1 -27 -9 -10 -8 -29 -15 -41 -15 -13 0 -23 -4 -23 -10 0 -5
-6 -10 -14 -10 -8 0 -16 -3 -18 -7 -1 -5 -24 -19 -50 -32 -27 -13 -48 -28 -48
-33 0 -4 -9 -8 -20 -8 -11 0 -20 -4 -20 -8 0 -4 -13 -16 -30 -25 -16 -10 -35
-23 -42 -30 -7 -7 -42 -32 -78 -56 -36 -25 -72 -53 -81 -63 -9 -10 -20 -18
-26 -18 -5 0 -17 -13 -26 -30 -10 -16 -22 -30 -27 -30 -16 0 -60 -42 -54 -52
3 -4 -1 -8 -8 -8 -7 0 -27 -16 -43 -35 -17 -20 -48 -55 -70 -80 -41 -44 -58
-66 -85 -106 -8 -12 -27 -37 -43 -54 -15 -18 -27 -40 -27 -49 0 -10 -4 -15 -9
-12 -8 5 -20 -14 -93 -142 -14 -26 -30 -52 -36 -57 -5 -6 -12 -23 -16 -38 -3
-15 -11 -27 -16 -27 -6 0 -10 -7 -10 -14 0 -8 -15 -48 -34 -88 -53 -115 -60
-132 -57 -145 1 -7 -3 -13 -9 -13 -5 0 -10 -8 -10 -17 -1 -10 -8 -36 -16 -58
-20 -53 -71 -224 -90 -305 -16 -68 -19 -80 -28 -144 -4 -21 -8 -42 -11 -46 -5
-9 -13 -57 -20 -121 -2 -19 -4 -34 -5 -34 -3 0 -9 -39 -15 -90 -3 -27 -7 -61
-9 -75 -3 -14 -7 -61 -11 -105 -3 -44 -8 -98 -10 -120 -6 -52 -15 -226 -24
-440 -7 -196 -5 -1465 2 -1510 3 -17 8 -93 12 -169 4 -76 8 -147 10 -158 2
-11 7 -49 10 -86 3 -37 8 -83 10 -102 3 -19 7 -55 10 -80 8 -58 12 -84 25
-145 6 -27 12 -61 14 -75 7 -52 27 -156 37 -187 6 -17 12 -42 14 -55 11 -57
14 -68 25 -87 6 -12 8 -21 5 -21 -3 0 1 -12 8 -28 8 -15 20 -52 27 -82 7 -30
17 -60 22 -66 5 -7 11 -22 13 -35 5 -23 27 -77 45 -111 6 -10 10 -25 10 -33 0
-8 4 -15 10 -15 5 0 9 -3 8 -7 -4 -15 13 -53 23 -53 6 0 8 -4 4 -9 -3 -5 1
-16 9 -24 8 -8 12 -17 9 -21 -4 -3 0 -6 7 -6 7 0 10 -3 7 -6 -4 -4 2 -19 11
-33 10 -14 27 -43 37 -63 11 -21 23 -38 28 -38 4 0 5 -5 2 -10 -3 -5 -2 -10 2
-10 5 0 17 -17 28 -37 11 -21 28 -46 38 -55 10 -9 18 -19 17 -23 -2 -7 34 -54
110 -145 41 -49 208 -220 215 -220 2 0 15 -10 28 -23 31 -29 66 -57 72 -57 5
0 51 -39 81 -68 7 -6 15 -12 17 -12 9 0 120 -70 111 -70 -5 0 7 -8 26 -17 19
-10 37 -20 40 -23 8 -9 134 -70 140 -67 3 1 19 -7 35 -18 31 -21 43 -27 135
-65 30 -12 64 -27 75 -32 12 -5 27 -10 35 -12 15 -3 38 -11 75 -26 24 -10 162
-51 179 -54 6 -1 16 -4 21 -8 6 -3 26 -9 45 -12 19 -3 59 -12 88 -21 28 -9 71
-17 95 -20 23 -2 55 -8 70 -14 15 -6 31 -10 35 -9 4 1 14 -2 22 -5 8 -3 38 -8
65 -11 90 -10 190 -24 210 -30 11 -3 56 -7 100 -10 44 -2 87 -7 95 -10 8 -3
58 -8 110 -11 52 -3 147 -9 210 -14 153 -11 1460 -6 1469 5 3 5 33 9 65 9 63
0 150 7 306 25 52 6 122 13 155 15 33 3 67 8 75 11 8 3 40 8 70 11 30 3 57 8
60 12 3 3 29 7 58 9 29 2 65 7 78 13 14 5 41 9 60 9 19 0 34 4 34 8 0 4 14 9
32 10 17 2 36 6 42 10 6 5 27 9 46 11 19 2 37 6 40 10 3 3 16 7 30 9 29 4 137
39 162 52 10 6 23 10 30 10 13 0 159 54 190 71 10 5 27 9 38 9 11 0 20 4 20 9
0 5 8 11 18 14 9 3 31 13 47 23 17 9 37 21 45 25 114 59 143 76 166 96 15 13
31 23 36 23 11 0 127 83 163 118 8 6 16 12 19 12 14 0 296 275 296 289 0 4 17
26 38 48 20 22 44 50 52 62 8 13 23 32 33 43 9 12 17 26 17 33 0 7 11 24 24
38 14 15 27 36 31 47 3 11 11 20 16 20 6 0 7 4 4 10 -3 5 -3 10 2 10 4 0 13
10 19 23 6 12 25 48 42 80 18 31 32 64 32 71 0 8 3 16 8 18 9 4 58 110 54 120
-1 4 2 8 8 8 5 0 10 9 10 20 0 11 5 20 11 20 6 0 9 9 6 20 -3 10 -1 20 4 22 5
2 11 13 14 26 2 12 7 27 10 32 3 5 8 18 10 27 2 10 13 45 24 78 22 66 59 191
66 224 3 12 7 31 10 43 3 13 14 59 24 103 11 44 22 98 25 120 3 22 7 49 10 60
3 11 7 38 10 60 3 22 11 85 19 140 8 55 18 125 21 155 3 30 8 66 10 80 3 14 7
66 11 115 3 50 10 144 14 210 5 66 8 146 8 178 -1 31 1 57 4 57 3 0 6 28 7 63
0 34 4 213 9 397 13 528 6 1182 -13 1280 -2 14 -7 59 -10 100 -2 41 -7 82 -10
90 -3 8 -8 46 -11 85 -3 38 -8 72 -12 75 -3 3 -7 29 -9 59 -1 30 -6 59 -10 65
-5 6 -10 29 -11 50 -1 22 -4 44 -8 49 -3 5 -7 26 -10 46 -2 20 -7 43 -10 51
-3 8 -7 22 -9 30 -1 8 -4 22 -7 30 -2 8 -7 29 -11 45 -4 17 -10 37 -13 45 -3
8 -7 20 -8 26 -6 26 -78 231 -88 249 -6 11 -11 25 -12 30 0 6 -10 31 -23 57
-12 26 -22 52 -22 57 0 6 -4 11 -10 11 -5 0 -10 9 -10 19 0 11 -7 26 -15 35
-8 8 -15 22 -15 30 0 9 -4 16 -8 16 -4 0 -14 16 -21 35 -7 19 -16 33 -20 30
-5 -2 -13 14 -20 35 -6 22 -16 40 -21 40 -5 0 -12 9 -15 20 -3 11 -12 26 -19
32 -6 7 -22 30 -35 51 -13 22 -35 50 -48 63 -13 13 -21 24 -18 24 3 0 -10 16
-30 35 -19 20 -42 47 -51 60 -9 14 -20 22 -25 19 -5 -3 -9 0 -9 7 0 16 -140
149 -158 149 -4 0 -18 14 -31 30 -13 17 -29 30 -37 30 -8 0 -14 3 -14 8 0 4
-21 20 -48 37 -26 16 -52 34 -59 40 -7 5 -19 16 -27 23 -8 6 -19 12 -24 12 -5
0 -15 7 -22 15 -7 8 -16 12 -21 9 -5 -3 -9 0 -9 5 0 6 -7 11 -15 11 -8 0 -15
5 -15 10 0 6 -9 10 -20 10 -11 0 -20 3 -20 8 0 4 -15 13 -32 21 -18 8 -35 17
-38 20 -11 13 -51 31 -69 31 -10 0 -24 7 -31 15 -7 8 -16 12 -21 9 -5 -3 -9 0
-9 5 0 6 -7 11 -15 11 -8 0 -30 9 -50 20 -20 11 -44 20 -55 20 -10 0 -22 5
-25 10 -3 6 -15 10 -26 10 -10 0 -27 4 -37 9 -38 19 -172 69 -206 75 -6 2 -28
6 -49 11 -20 4 -40 11 -43 16 -3 5 -18 9 -35 9 -16 0 -29 4 -29 9 0 5 -19 11
-42 14 -60 7 -197 37 -228 50 -15 6 -30 9 -135 23 -27 4 -55 10 -60 15 -6 4
-39 9 -75 10 -36 2 -72 6 -81 10 -9 5 -38 9 -65 10 -27 1 -58 5 -69 9 -11 4
-69 10 -129 14 -59 3 -111 8 -115 10 -3 2 -64 7 -135 10 -71 4 -133 9 -138 12
-14 9 -853 10 -973 2z m795 -892 c58 -4 146 -8 195 -10 50 -2 106 -7 125 -10
19 -3 72 -8 118 -11 46 -2 86 -7 91 -9 4 -3 32 -6 62 -7 30 -1 68 -6 84 -10
17 -5 49 -10 72 -12 23 -2 46 -6 49 -10 4 -4 28 -7 54 -7 25 0 50 -4 55 -9 6
-6 35 -12 66 -14 31 -2 61 -7 67 -11 6 -3 32 -11 59 -16 26 -6 57 -12 68 -15
11 -2 54 -13 95 -25 41 -12 90 -26 109 -30 18 -5 38 -13 43 -18 6 -6 17 -8 24
-5 8 3 14 0 14 -6 0 -6 11 -11 24 -11 14 0 28 -4 31 -10 3 -5 16 -10 29 -10
12 0 26 -4 32 -8 5 -5 28 -14 52 -21 23 -6 42 -16 42 -21 0 -6 8 -10 19 -10
10 0 24 -6 30 -14 7 -8 25 -18 41 -21 16 -3 34 -13 41 -21 6 -8 28 -22 48 -31
20 -10 41 -22 47 -28 36 -32 56 -45 70 -45 8 0 12 -4 9 -10 -3 -5 -1 -10 4
-10 22 0 215 -190 194 -190 -4 0 -3 -4 2 -8 6 -4 24 -27 40 -52 16 -25 33 -47
36 -50 8 -7 99 -190 99 -200 0 -5 10 -30 22 -57 11 -26 23 -57 25 -67 2 -11
11 -40 19 -65 9 -25 20 -62 24 -81 5 -19 11 -46 14 -60 13 -58 25 -118 32
-155 4 -22 8 -47 10 -55 9 -48 17 -106 16 -111 0 -3 3 -35 8 -70 6 -35 12
-111 15 -169 3 -58 8 -130 11 -160 7 -70 7 -775 0 -980 -3 -85 -8 -236 -11
-335 -7 -238 -19 -450 -29 -510 -3 -16 -6 -46 -7 -65 -3 -81 -37 -354 -46
-380 -3 -8 -7 -24 -8 -35 -4 -36 -15 -99 -24 -142 -4 -24 -6 -43 -3 -43 2 0 0
-6 -6 -13 -6 -7 -12 -29 -14 -48 -1 -19 -5 -36 -9 -39 -4 -3 -9 -19 -12 -35
-2 -17 -23 -85 -46 -151 -22 -67 -41 -128 -41 -136 0 -9 -7 -21 -15 -28 -8 -7
-15 -21 -15 -31 0 -9 -7 -24 -15 -32 -7 -8 -17 -26 -21 -41 -3 -14 -11 -26
-17 -26 -6 0 -8 -3 -4 -6 3 -4 -5 -21 -18 -39 -14 -17 -25 -35 -25 -39 0 -4
-8 -18 -17 -31 -10 -12 -25 -33 -33 -45 -8 -13 -27 -38 -42 -55 -15 -18 -25
-35 -21 -39 3 -3 -2 -6 -12 -6 -10 0 -16 -3 -12 -6 7 -7 -90 -105 -142 -144
-19 -14 -45 -35 -60 -47 -14 -13 -32 -23 -39 -23 -7 0 -10 -5 -7 -10 3 -6 0
-10 -9 -10 -8 0 -16 -3 -18 -7 -3 -7 -26 -21 -125 -73 -74 -38 -127 -60 -145
-60 -10 0 -18 -4 -18 -10 0 -5 -9 -10 -19 -10 -11 0 -23 -4 -26 -10 -3 -5 -17
-10 -31 -10 -13 0 -24 -4 -24 -8 0 -4 -15 -9 -32 -10 -18 -2 -34 -7 -36 -12
-2 -6 -13 -10 -25 -10 -35 0 -127 -24 -127 -33 0 -4 -4 -6 -9 -3 -4 3 -23 1
-42 -5 -35 -11 -119 -24 -219 -35 -30 -4 -57 -10 -60 -15 -3 -4 -13 -7 -23 -5
-10 1 -46 -1 -80 -6 -34 -4 -100 -10 -147 -14 -47 -3 -91 -8 -99 -10 -8 -3
-87 -7 -175 -9 -89 -3 -195 -8 -236 -12 -101 -9 -964 -11 -1015 -2 -22 4 -103
9 -180 12 -77 3 -147 8 -155 11 -8 2 -54 7 -101 10 -47 3 -92 7 -100 10 -8 3
-37 7 -65 9 -29 3 -56 7 -61 10 -5 3 -31 7 -57 8 -26 2 -49 6 -52 11 -3 4 -20
8 -39 8 -19 0 -45 4 -58 9 -13 5 -44 11 -69 14 -25 3 -54 10 -65 16 -11 5 -23
8 -26 4 -4 -3 -13 -1 -20 5 -8 7 -30 13 -49 14 -20 2 -34 6 -31 11 2 4 -7 7
-21 7 -14 0 -27 4 -30 9 -4 5 -25 12 -48 16 -24 4 -53 14 -65 22 -12 8 -28 16
-35 17 -7 1 -23 8 -35 14 -13 7 -23 10 -23 8 0 -3 -22 8 -50 24 -27 16 -57 30
-67 32 -10 2 -25 11 -34 20 -9 10 -21 18 -28 18 -9 0 -69 41 -124 86 -9 8 -20
14 -23 14 -13 0 -154 137 -154 150 0 6 -8 10 -17 10 -9 0 -14 3 -10 6 3 3 -8
19 -24 35 -16 16 -27 29 -24 29 4 0 -7 17 -24 38 -16 21 -35 50 -42 65 -7 15
-16 27 -20 27 -4 0 -15 20 -26 45 -10 25 -21 45 -25 45 -5 0 -8 6 -8 13 0 7
-9 30 -21 51 -11 22 -22 46 -24 55 -2 9 -14 41 -25 71 -12 30 -26 73 -32 95
-5 22 -12 47 -15 55 -4 8 -8 26 -10 40 -2 13 -8 29 -12 35 -4 5 -9 28 -10 49
-1 21 -6 47 -12 57 -5 10 -11 35 -14 56 -5 45 -14 99 -20 129 -3 12 -7 52 -11
90 -3 38 -8 80 -10 94 -3 14 -7 57 -10 95 -2 39 -7 84 -10 100 -22 124 -22
1786 1 1920 2 17 7 66 10 110 7 106 15 180 31 293 12 90 13 97 33 182 5 25 11
62 13 82 1 21 4 35 7 32 3 -2 15 37 27 88 12 51 32 114 43 141 11 26 18 47 16
47 -2 0 6 21 19 48 46 92 77 162 76 168 -1 4 2 10 7 13 17 12 44 62 38 71 -3
6 0 10 7 10 7 0 19 13 26 28 6 16 21 38 32 50 11 12 20 26 20 32 0 5 4 10 9
10 5 0 13 9 16 20 4 11 11 18 16 15 5 -4 9 -2 9 4 0 13 143 156 153 153 4 -1
10 5 13 13 4 8 12 15 20 15 7 0 17 6 21 13 18 28 147 101 281 158 17 8 32 17
32 21 0 5 11 8 24 8 14 0 27 4 30 9 3 5 20 11 38 13 33 5 117 32 150 49 10 5
29 9 43 9 14 0 25 3 25 8 0 4 21 8 47 10 26 1 50 6 53 11 5 8 27 13 118 27 20
3 44 8 52 11 8 3 26 8 40 10 14 2 47 8 73 14 26 6 50 9 53 6 3 -3 20 -1 37 4
18 6 59 12 92 15 33 2 74 8 90 13 17 4 57 9 90 10 33 1 61 6 62 9 2 4 18 7 35
6 18 0 69 3 113 8 44 4 155 11 247 14 92 3 189 9 214 12 61 9 458 8 594 -2z"/>
<path d="M3557 6793 c-2 -1 -30 -5 -62 -9 -33 -3 -86 -14 -119 -24 -33 -11
-63 -17 -67 -14 -4 2 -9 1 -11 -3 -3 -7 -125 -69 -146 -75 -4 -1 -11 -6 -17
-10 -5 -5 -28 -22 -50 -38 -22 -16 -46 -34 -52 -40 -7 -6 -13 -8 -13 -3 0 4
-6 0 -12 -8 -26 -30 -106 -88 -113 -81 -3 4 -5 2 -3 -3 3 -9 -37 -49 -100
-101 -33 -26 -338 -330 -384 -382 -21 -23 -38 -39 -38 -36 0 3 -12 -9 -27 -27
-44 -52 -71 -77 -77 -71 -3 3 -6 0 -6 -6 0 -6 -34 -46 -76 -89 -42 -43 -92
-101 -111 -129 -34 -51 -51 -118 -33 -129 6 -4 8 -11 4 -16 -3 -5 -2 -8 3 -7
4 1 24 -5 43 -14 40 -18 174 -42 300 -53 33 -3 65 -7 180 -21 25 -3 56 -7 70
-10 14 -2 41 -7 60 -10 19 -3 62 -12 95 -21 33 -8 69 -17 80 -19 12 -2 48 -13
80 -24 33 -11 68 -22 77 -25 16 -3 32 -10 118 -48 14 -6 33 -18 43 -26 9 -8
17 -11 17 -8 0 7 49 -19 94 -48 21 -14 24 -13 53 18 16 17 44 53 61 78 28 42
89 98 103 95 4 -1 15 6 25 15 17 14 85 45 107 48 4 1 8 1 10 2 50 15 140 16
207 2 74 -16 170 -57 170 -73 0 -6 4 -9 9 -5 20 12 99 -81 137 -160 21 -44 37
-84 36 -88 -1 -5 2 -6 7 -3 5 4 13 0 18 -7 22 -38 132 -101 495 -284 103 -52
188 -98 190 -101 2 -4 16 -17 32 -30 16 -12 25 -22 20 -22 -5 0 -4 -4 3 -8 6
-4 26 -38 45 -77 42 -87 73 -110 191 -141 4 -1 10 -3 15 -4 4 -1 12 -3 17 -4
78 -13 274 -75 311 -99 40 -26 40 -27 37 -147 -4 -149 -17 -240 -35 -240 -5 0
-6 -4 -3 -10 14 -23 -140 -210 -174 -210 -6 0 -11 -3 -11 -7 0 -7 -57 -45 -70
-48 -3 0 -17 -8 -31 -18 -26 -17 -190 -87 -213 -91 -6 -1 -15 -4 -21 -7 -5 -4
-23 -10 -40 -14 -45 -12 -45 -12 -47 -15 -3 -2 -29 -8 -63 -15 -11 -3 -60 -13
-110 -24 -49 -11 -106 -22 -125 -25 -19 -3 -60 -10 -90 -16 -30 -6 -68 -13
-85 -16 -70 -12 -289 -72 -335 -91 -14 -6 -28 -9 -32 -6 -5 2 -8 -1 -8 -8 0
-7 -3 -10 -6 -7 -6 6 -38 -5 -134 -49 -100 -45 -115 -52 -124 -51 -5 0 -12 -4
-15 -10 -3 -5 -28 -21 -56 -37 -74 -42 -177 -107 -199 -127 -10 -10 -24 -15
-29 -11 -6 3 -7 1 -4 -4 4 -6 -1 -14 -11 -18 -9 -3 -19 -7 -21 -8 -3 -1 -16
-13 -31 -27 -39 -38 -89 -80 -95 -80 -2 0 -60 -55 -127 -122 -68 -66 -126
-120 -130 -120 -5 1 -7 -2 -5 -6 2 -7 -38 -63 -68 -96 -82 -88 -232 -349 -235
-408 -1 -4 -8 -27 -16 -50 -15 -41 -21 -188 -11 -233 9 -38 41 -110 65 -149
27 -44 137 -156 153 -156 6 0 7 -5 4 -10 -4 -6 -3 -9 2 -8 9 3 85 -41 94 -55
3 -5 9 -8 13 -8 10 1 101 -43 108 -54 4 -5 8 -7 8 -3 0 3 25 -2 55 -13 104
-36 251 -62 355 -62 39 0 159 12 187 18 109 24 251 82 343 140 25 16 47 27 49
26 2 -2 7 1 10 7 3 5 24 22 46 38 23 16 47 35 55 41 77 66 116 101 129 115 9
10 21 18 28 18 7 0 12 3 11 8 -1 4 56 65 125 136 70 70 127 132 127 138 0 5 5
6 10 3 6 -3 10 -1 10 4 0 14 43 57 52 54 5 -2 7 1 5 5 -3 12 27 44 331 348
151 151 278 274 284 274 6 0 9 2 6 5 -7 7 345 362 355 357 4 -2 7 1 7 7 0 12
168 180 174 174 2 -3 7 4 10 14 4 10 22 29 41 43 19 14 35 28 35 32 0 3 18 25
40 47 23 23 37 41 33 41 -4 0 0 7 10 14 22 17 112 167 127 212 6 19 16 34 22
34 6 0 9 3 5 6 -3 3 -1 18 5 33 5 14 11 33 13 41 2 8 8 30 14 48 5 17 7 32 4
32 -3 0 -1 6 4 12 6 7 10 20 11 28 0 8 3 42 8 75 11 94 5 270 -12 327 -3 9 -7
27 -9 39 -7 34 -46 148 -61 177 -7 14 -11 29 -8 34 3 4 1 8 -5 8 -6 0 -18 17
-28 38 -9 20 -20 39 -23 42 -15 13 -49 68 -45 74 3 3 3 4 0 3 -7 -5 -115 103
-115 115 0 4 -5 8 -11 8 -16 0 -39 26 -31 35 4 5 2 5 -4 2 -12 -7 -537 515
-529 526 3 4 2 5 -1 3 -8 -6 -64 49 -64 63 0 6 -4 10 -8 9 -13 -4 -953 948
-944 956 3 3 0 6 -7 6 -17 0 -42 26 -33 35 4 4 3 5 -3 3 -5 -1 -23 9 -40 24
-80 71 -101 88 -107 88 -5 0 -16 8 -26 18 -31 30 -245 142 -282 147 -8 1 -40
10 -70 19 -60 19 -70 21 -145 32 -50 7 -203 12 -208 7z"/>
<path d="M4353 4585 c-17 -7 -34 -18 -37 -24 -4 -6 -12 -9 -17 -6 -5 4 -9 0
-9 -7 0 -7 -6 -25 -14 -39 -16 -31 -13 -82 8 -129 8 -19 15 -31 16 -27 0 4 10
-1 21 -12 48 -45 147 -35 193 20 74 88 19 222 -96 233 -19 2 -49 -2 -65 -9z"/>
</g>
</svg>
